<svg width="168" height="47" viewBox="0 0 168 47" fill="none" xmlns="http://www.w3.org/2000/svg">
<path d="M2.184 39V22.2H5.784V39H2.184ZM3.84 32.328V29.208H12.552V32.328H3.84ZM3.84 25.44V22.2H13.56V25.44H3.84ZM16.2118 39V26.304H19.4998L19.6198 30.384L19.0438 29.52C19.2518 28.88 19.5638 28.296 19.9798 27.768C20.4118 27.24 20.9158 26.824 21.4918 26.52C22.0838 26.2 22.6998 26.04 23.3398 26.04C23.6278 26.04 23.8918 26.064 24.1318 26.112C24.3878 26.144 24.6038 26.2 24.7798 26.28L23.8678 30C23.6918 29.92 23.4598 29.848 23.1718 29.784C22.8998 29.704 22.6198 29.664 22.3318 29.664C21.9638 29.664 21.6118 29.736 21.2758 29.88C20.9558 30.008 20.6678 30.2 20.4118 30.456C20.1718 30.696 19.9798 30.984 19.8358 31.32C19.7078 31.656 19.6438 32.032 19.6438 32.448V39H16.2118ZM32.2202 39.24C30.8442 39.24 29.6362 38.96 28.5962 38.4C27.5722 37.84 26.7722 37.072 26.1962 36.096C25.6362 35.12 25.3562 34.008 25.3562 32.76C25.3562 31.768 25.5162 30.864 25.8362 30.048C26.1562 29.216 26.6042 28.504 27.1802 27.912C27.7562 27.32 28.4362 26.864 29.2202 26.544C30.0202 26.208 30.8922 26.04 31.8362 26.04C32.7002 26.04 33.4922 26.2 34.2122 26.52C34.9482 26.824 35.5802 27.264 36.1082 27.84C36.6522 28.4 37.0682 29.064 37.3562 29.832C37.6442 30.6 37.7802 31.44 37.7642 32.352L37.7402 33.408H27.5402L26.9882 31.296H34.9322L34.5242 31.728V31.224C34.4922 30.776 34.3482 30.384 34.0922 30.048C33.8522 29.712 33.5402 29.448 33.1562 29.256C32.7722 29.048 32.3482 28.944 31.8842 28.944C31.1642 28.944 30.5562 29.088 30.0602 29.376C29.5802 29.648 29.2122 30.048 28.9562 30.576C28.7162 31.088 28.5962 31.728 28.5962 32.496C28.5962 33.248 28.7562 33.912 29.0762 34.488C29.3962 35.048 29.8522 35.48 30.4442 35.784C31.0522 36.088 31.7642 36.24 32.5802 36.24C33.1402 36.24 33.6522 36.152 34.1162 35.976C34.5802 35.8 35.0842 35.496 35.6282 35.064L37.2362 37.344C36.7882 37.744 36.2842 38.088 35.7242 38.376C35.1642 38.664 34.5882 38.88 33.9962 39.024C33.4042 39.168 32.8122 39.24 32.2202 39.24ZM44.5541 39.24C43.3861 39.24 42.3381 39.048 41.4101 38.664C40.4981 38.28 39.7541 37.736 39.1781 37.032L41.3141 35.208C41.8101 35.736 42.3541 36.12 42.9461 36.36C43.5541 36.584 44.1701 36.696 44.7941 36.696C45.0181 36.696 45.2261 36.672 45.4181 36.624C45.6101 36.56 45.7781 36.48 45.9221 36.384C46.0661 36.272 46.1701 36.144 46.2341 36C46.3141 35.856 46.3541 35.688 46.3541 35.496C46.3541 35.144 46.2101 34.872 45.9221 34.68C45.7941 34.584 45.5541 34.48 45.2021 34.368C44.8661 34.24 44.4341 34.104 43.9061 33.96C43.0901 33.752 42.4021 33.512 41.8421 33.24C41.2821 32.952 40.8261 32.624 40.4741 32.256C40.1861 31.952 39.9621 31.6 39.8021 31.2C39.6581 30.8 39.5861 30.36 39.5861 29.88C39.5861 29.112 39.8101 28.44 40.2581 27.864C40.7061 27.288 41.2981 26.84 42.0341 26.52C42.7861 26.2 43.6021 26.04 44.4821 26.04C45.1381 26.04 45.7701 26.12 46.3781 26.28C47.0021 26.44 47.5781 26.672 48.1061 26.976C48.6501 27.264 49.1221 27.608 49.5221 28.008L47.6981 30.048C47.4101 29.76 47.0821 29.512 46.7141 29.304C46.3461 29.08 45.9781 28.904 45.6101 28.776C45.2421 28.632 44.9061 28.56 44.6021 28.56C44.3301 28.56 44.0821 28.584 43.8581 28.632C43.6501 28.68 43.4741 28.76 43.3301 28.872C43.1861 28.968 43.0741 29.088 42.9941 29.232C42.9301 29.376 42.8981 29.536 42.8981 29.712C42.8981 29.888 42.9381 30.056 43.0181 30.216C43.1141 30.36 43.2421 30.496 43.4021 30.624C43.5621 30.72 43.8181 30.832 44.1701 30.96C44.5381 31.088 45.0101 31.232 45.5861 31.392C46.3541 31.6 47.0021 31.832 47.5301 32.088C48.0581 32.344 48.4821 32.64 48.8021 32.976C49.0901 33.264 49.2901 33.6 49.4021 33.984C49.5301 34.352 49.5941 34.752 49.5941 35.184C49.5941 35.968 49.3701 36.672 48.9221 37.296C48.4901 37.904 47.8901 38.384 47.1221 38.736C46.3701 39.072 45.5141 39.24 44.5541 39.24ZM52.0478 39V21.24H55.4318V28.896L54.7598 29.184C54.9198 28.608 55.2318 28.088 55.6958 27.624C56.1598 27.144 56.7118 26.76 57.3518 26.472C57.9918 26.184 58.6558 26.04 59.3438 26.04C60.3038 26.04 61.1038 26.232 61.7438 26.616C62.3998 27 62.8878 27.584 63.2078 28.368C63.5438 29.136 63.7118 30.096 63.7118 31.248V39H60.3038V31.488C60.3038 30.912 60.2238 30.432 60.0638 30.048C59.9038 29.664 59.6638 29.384 59.3438 29.208C59.0238 29.032 58.6158 28.952 58.1198 28.968C57.7358 28.968 57.3838 29.032 57.0638 29.16C56.7438 29.272 56.4558 29.44 56.1998 29.664C55.9598 29.888 55.7758 30.144 55.6478 30.432C55.5198 30.72 55.4558 31.04 55.4558 31.392V39H53.7518C53.3998 39 53.0798 39 52.7918 39C52.5038 39 52.2558 39 52.0478 39ZM74.7934 39V22.2H82.0894C83.2254 22.2 84.1774 22.368 84.9454 22.704C85.7134 23.024 86.2974 23.496 86.6974 24.12C87.1134 24.728 87.3214 25.48 87.3214 26.376C87.3214 27.304 87.0734 28.088 86.5774 28.728C86.0974 29.368 85.4174 29.816 84.5374 30.072L84.5134 29.568C85.2494 29.744 85.8894 30.04 86.4334 30.456C86.9934 30.856 87.4254 31.352 87.7294 31.944C88.0494 32.536 88.2094 33.208 88.2094 33.96C88.2094 34.792 88.0654 35.528 87.7774 36.168C87.5054 36.792 87.1054 37.32 86.5774 37.752C86.0654 38.168 85.4494 38.48 84.7294 38.688C84.0094 38.896 83.2094 39 82.3294 39H74.7934ZM78.2494 35.88H82.1854C82.9534 35.88 83.5534 35.704 83.9854 35.352C84.4174 34.984 84.6334 34.472 84.6334 33.816C84.6334 33.4 84.5294 33.048 84.3214 32.76C84.1134 32.472 83.8174 32.256 83.4334 32.112C83.0494 31.968 82.5934 31.896 82.0654 31.896H78.2494V35.88ZM78.2494 28.992H81.6574C82.1054 28.992 82.4814 28.92 82.7854 28.776C83.1054 28.616 83.3534 28.4 83.5294 28.128C83.7054 27.84 83.7934 27.512 83.7934 27.144C83.7934 26.568 83.5934 26.12 83.1934 25.8C82.8094 25.48 82.2334 25.32 81.4654 25.32H78.2494V28.992ZM91.2654 39V26.304H94.6734V39H91.2654ZM92.9694 23.688C92.2974 23.688 91.7774 23.528 91.4094 23.208C91.0414 22.888 90.8574 22.432 90.8574 21.84C90.8574 21.296 91.0414 20.856 91.4094 20.52C91.7934 20.168 92.3134 19.992 92.9694 19.992C93.6094 19.992 94.1134 20.152 94.4814 20.472C94.8494 20.792 95.0334 21.248 95.0334 21.84C95.0334 22.4 94.8494 22.848 94.4814 23.184C94.1134 23.52 93.6094 23.688 92.9694 23.688ZM99.5608 39V23.088H102.969V39H99.5608ZM97.1848 29.352V26.304H105.585V29.352H97.1848ZM113.689 39.24C112.313 39.24 111.105 38.96 110.065 38.4C109.041 37.84 108.241 37.072 107.665 36.096C107.105 35.12 106.825 34.008 106.825 32.76C106.825 31.768 106.985 30.864 107.305 30.048C107.625 29.216 108.073 28.504 108.649 27.912C109.225 27.32 109.905 26.864 110.689 26.544C111.489 26.208 112.361 26.04 113.305 26.04C114.169 26.04 114.961 26.2 115.681 26.52C116.417 26.824 117.049 27.264 117.577 27.84C118.121 28.4 118.537 29.064 118.825 29.832C119.113 30.6 119.249 31.44 119.233 32.352L119.209 33.408H109.009L108.457 31.296H116.401L115.993 31.728V31.224C115.961 30.776 115.817 30.384 115.561 30.048C115.321 29.712 115.009 29.448 114.625 29.256C114.241 29.048 113.817 28.944 113.353 28.944C112.633 28.944 112.025 29.088 111.529 29.376C111.049 29.648 110.681 30.048 110.425 30.576C110.185 31.088 110.065 31.728 110.065 32.496C110.065 33.248 110.225 33.912 110.545 34.488C110.865 35.048 111.321 35.48 111.913 35.784C112.521 36.088 113.233 36.24 114.049 36.24C114.609 36.24 115.121 36.152 115.585 35.976C116.049 35.8 116.553 35.496 117.097 35.064L118.705 37.344C118.257 37.744 117.753 38.088 117.193 38.376C116.633 38.664 116.057 38.88 115.465 39.024C114.873 39.168 114.281 39.24 113.689 39.24Z" fill="#1D1D1D"/>
<path d="M140.1 10.835C140.584 10.835 141.048 10.644 141.392 10.3035C141.735 9.96297 141.931 9.50051 141.936 9.01665C141.94 8.53248 141.754 8.06605 141.416 7.71889C141.079 7.37174 140.618 7.17197 140.133 7.16309M139.941 14.4892C139.457 14.4892 138.993 14.2982 138.649 13.9577C138.305 13.6172 138.11 13.1548 138.105 12.6709C138.1 12.1867 138.287 11.7203 138.625 11.3731C138.962 11.026 139.423 10.8262 139.907 10.8173M140.1 18.1611C140.584 18.1611 141.048 17.9701 141.392 17.6296C141.735 17.2891 141.931 16.8266 141.936 16.3428C141.94 15.8586 141.754 15.3922 141.416 15.045C141.079 14.6979 140.618 14.4981 140.133 14.4892M147.443 10.835C147.927 10.835 148.392 10.644 148.735 10.3035C149.079 9.96297 149.275 9.50051 149.279 9.01665C149.284 8.53248 149.097 8.06605 148.76 7.71889C148.422 7.37174 147.961 7.17197 147.477 7.16309M147.285 14.4892C146.801 14.4892 146.337 14.2982 145.993 13.9577C145.649 13.6172 145.453 13.1548 145.449 12.6709C145.444 12.1867 145.631 11.7203 145.968 11.3731C146.306 11.026 146.767 10.8262 147.251 10.8173M147.443 18.1611C147.927 18.1611 148.392 17.9701 148.735 17.6296C149.079 17.2891 149.275 16.8266 149.279 16.3428C149.284 15.8586 149.097 15.3922 148.76 15.045C148.422 14.6979 147.961 14.4981 147.477 14.4892M133.324 10.835C133.808 10.835 134.273 10.644 134.616 10.3035C134.96 9.96297 135.156 9.50051 135.16 9.01665C135.165 8.53273 134.978 8.06651 134.641 7.7194C134.304 7.37229 133.843 7.17235 133.36 7.16309M133.167 14.4892C132.683 14.4892 132.219 14.2982 131.875 13.9577C131.531 13.6172 131.336 13.1548 131.331 12.6709C131.326 12.187 131.513 11.7208 131.85 11.3737C132.187 11.0265 132.648 10.8266 133.132 10.8173M133.324 18.1611C133.808 18.1611 134.273 17.9701 134.616 17.6296C134.96 17.2891 135.156 16.8266 135.16 16.3428C135.165 15.8589 134.978 15.3926 134.641 15.0455C134.304 14.6984 133.843 14.4985 133.36 14.4892" stroke="#FAA41A" stroke-linecap="round" stroke-linejoin="round"/>
<path d="M134.04 39.8369H147.255V35.4659C144.44 36.7085 142.799 36.9024 140.517 36.9494C137.663 37.0081 135.729 36.5146 134.04 36.0916V39.8369Z" stroke="#383747" stroke-linecap="round" stroke-linejoin="round"/>
<path d="M157.281 24.0126C154.814 33.2275 145.383 38.6957 136.168 36.2267C133.243 35.4459 130.577 33.9078 128.436 31.7675C126.296 29.6272 124.758 26.9604 123.977 24.0361L157.281 24.0126Z" fill="#FAA41A" stroke="#383747" stroke-linecap="round" stroke-linejoin="round"/>
<path d="M123.968 21.0677H157.287V24.0919H123.968V21.0677Z" stroke="#383747" stroke-linecap="round" stroke-linejoin="round"/>
<path d="M145.49 21.0589C156.946 21.5113 154.066 13.348 162.533 12.6106C163.371 12.5372 163.811 12.521 164.986 12.596L165.03 12.5813C163.569 11.7118 160.875 10.2401 158.626 10.8643C157.476 11.1845 155.685 12.4212 154.485 14.7785C151.463 21.3938 148.521 21.0457 146.127 21.0574L145.49 21.0589Z" stroke="#383747" stroke-linecap="round" stroke-linejoin="round"/>
<path d="M152.54 26.6079C151.5 29.7804 148.717 31.9835 145.486 32.5828" stroke="white" stroke-linecap="round" stroke-linejoin="round"/>
</svg>
